<svg xmlns="http://www.w3.org/2000/svg">
        <symbol id="textLogo" viewBox="0 0 505 62"  stroke="none" fill="#FFFFFF">
    <title>Bowen Garden Club</title>
    <desc>Text Logo for the Garden Club</desc>
            <path d="M3.23,5.37 L3.23,12.24 L6.47,12.24 C7.6500059,12.24 8.58499655,11.9100033 9.275,11.25 C9.96500345,10.5899967 10.31,9.7200054 10.31,8.64 C10.31,7.4599941 9.9500036,6.6200025 9.23,6.12 C8.5099964,5.6199975 7.5700058,5.37 6.41,5.37 L3.23,5.37 Z M3.23,14.61 L3.23,21.63 L6.56,21.63 C7.1800031,21.63 7.7599973,21.5600007 8.3,21.42 C8.8400027,21.2799993 9.31499795,21.0650014 9.725,20.775 C10.1350021,20.4849986 10.4599988,20.1300021 10.7,19.71 C10.9400012,19.2899979 11.06,18.7900029 11.06,18.21 C11.06,17.5899969 10.9200014,17.0500023 10.64,16.59 C10.3599986,16.1299977 9.99500225,15.7550015 9.545,15.465 C9.09499775,15.1749986 8.570003,14.9600007 7.97,14.82 C7.369997,14.6799993 6.7600031,14.61 6.14,14.61 L3.23,14.61 Z M0.74,24 L0.74,3 L6.23,3 C7.2100049,3 8.10499595,3.099999 8.915,3.3 C9.72500405,3.500001 10.4149972,3.8099979 10.985,4.23 C11.5550029,4.6500021 11.9999984,5.19499665 12.32,5.865 C12.6400016,6.53500335 12.8,7.3299954 12.8,8.25 C12.8,9.4900062 12.505003,10.5799953 11.915,11.52 C11.3249971,12.4600047 10.430006,13.0999983 9.23,13.44 C9.7900028,13.5600006 10.3349974,13.7599986 10.865,14.04 C11.3950027,14.3200014 11.8549981,14.6799978 12.245,15.12 C12.635002,15.5600022 12.9499988,16.0699971 13.19,16.65 C13.4300012,17.2300029 13.55,17.8799964 13.55,18.6 C13.55,19.5000045 13.3600019,20.2849967 12.98,20.955 C12.5999981,21.6250034 12.0950032,22.1849978 11.465,22.635 C10.8349969,23.0850023 10.1100041,23.4249989 9.29,23.655 C8.4699959,23.8850012 7.6300043,24 6.77,24 L0.74,24 Z M16.13,18.36 C16.13,17.559996 16.2849985,16.8000036 16.595,16.08 C16.9050016,15.3599964 17.3299973,14.7350026 17.87,14.205 C18.4100027,13.6749973 19.0449964,13.2550016 19.775,12.945 C20.5050037,12.6349984 21.2899958,12.48 22.13,12.48 C22.9700042,12.48 23.7599963,12.6349984 24.5,12.945 C25.2400037,13.2550016 25.8799973,13.6749973 26.42,14.205 C26.9600027,14.7350026 27.3849985,15.3599964 27.695,16.08 C28.0050016,16.8000036 28.16,17.559996 28.16,18.36 C28.16,19.1800041 28.0050016,19.9449965 27.695,20.655 C27.3849985,21.3650035 26.9600027,21.9899973 26.42,22.53 C25.8799973,23.0700027 25.2400037,23.4949985 24.5,23.805 C23.7599963,24.1150016 22.9700042,24.27 22.13,24.27 C21.2899958,24.27 20.5050037,24.1150016 19.775,23.805 C19.0449964,23.4949985 18.4100027,23.0700027 17.87,22.53 C17.3299973,21.9899973 16.9050016,21.3650035 16.595,20.655 C16.2849985,19.9449965 16.13,19.1800041 16.13,18.36 L16.13,18.36 Z M18.62,18.39 C18.62,18.8700024 18.7099991,19.3199979 18.89,19.74 C19.0700009,20.1600021 19.3149985,20.5249984 19.625,20.835 C19.9350016,21.1450016 20.2999979,21.3899991 20.72,21.57 C21.1400021,21.7500009 21.5899976,21.84 22.07,21.84 C22.5500024,21.84 22.9999979,21.7500009 23.42,21.57 C23.8400021,21.3899991 24.2099984,21.1450016 24.53,20.835 C24.8500016,20.5249984 25.0999991,20.1600021 25.28,19.74 C25.4600009,19.3199979 25.55,18.8700024 25.55,18.39 C25.55,17.9099976 25.4600009,17.4600021 25.28,17.04 C25.0999991,16.6199979 24.8500016,16.2500016 24.53,15.93 C24.2099984,15.6099984 23.8400021,15.3600009 23.42,15.18 C22.9999979,14.9999991 22.5500024,14.91 22.07,14.91 C21.5899976,14.91 21.1400021,14.9999991 20.72,15.18 C20.2999979,15.3600009 19.9350016,15.6099984 19.625,15.93 C19.3149985,16.2500016 19.0700009,16.6199979 18.89,17.04 C18.7099991,17.4600021 18.62,17.9099976 18.62,18.39 L18.62,18.39 Z M39.77,14.16 C39.6499994,13.9199988 39.5350006,13.6850011 39.425,13.455 C39.3149995,13.2249988 39.2000006,12.9900012 39.08,12.75 L41.57,12.75 C42.1500029,14.0100063 42.7749967,15.2749936 43.445,16.545 C44.1150034,17.8150064 44.6699978,19.0999935 45.11,20.4 C45.5500022,19.0999935 46.1049967,17.8150064 46.775,16.545 C47.4450034,15.2749936 48.0699971,14.0100063 48.65,12.75 L51.14,12.75 C50.1199949,14.75001 49.1150049,16.7399901 48.125,18.72 C47.1349951,20.7000099 46.1300051,22.68999 45.11,24.69 C44.4299966,23.3299932 43.7500034,21.9850067 43.07,20.655 C42.3899966,19.3249933 41.7100034,17.9800068 41.03,16.62 C40.3499966,17.9800068 39.6700034,19.3249933 38.99,20.655 C38.3099966,21.9850067 37.6300034,23.3299932 36.95,24.69 C35.9299949,22.68999 34.925005,20.7000099 33.935,18.72 C32.9449951,16.7399901 31.9400051,14.75001 30.92,12.75 L33.41,12.75 C33.9900029,14.0100063 34.6149966,15.2749936 35.285,16.545 C35.9550033,17.8150064 36.5099978,19.0999935 36.95,20.4 C37.3100018,19.3199946 37.7549973,18.2650052 38.285,17.235 C38.8150026,16.2049948 39.3099977,15.1800051 39.77,14.16 L39.77,14.16 Z M59.54,14.91 C58.739996,14.91 58.0500029,15.109998 57.47,15.51 C56.8899971,15.910002 56.4800012,16.4299968 56.24,17.07 C56.1399995,17.3700015 56.0700002,17.719998 56.03,18.12 C56.9700047,17.7799983 57.9049954,17.4350018 58.835,17.085 C59.7650047,16.7349983 60.6999953,16.3900017 61.64,16.05 C61.3599986,15.7099983 61.0450018,15.435001 60.695,15.225 C60.3449983,15.0149989 59.9600021,14.91 59.54,14.91 L59.54,14.91 Z M64.82,17.46 C63.4599932,17.9600025 62.1050068,18.4599975 60.755,18.96 C59.4049933,19.4600025 58.0500068,19.9599975 56.69,20.46 C56.9900015,20.8800021 57.3849976,21.2149988 57.875,21.465 C58.3650025,21.7150013 58.9199969,21.84 59.54,21.84 C60.4600046,21.84 61.219997,21.5200032 61.82,20.88 L63.35,22.68 C62.8499975,23.1800025 62.2800032,23.5699986 61.64,23.85 C60.9999968,24.1300014 60.3000038,24.27 59.54,24.27 C58.6999958,24.27 57.9150037,24.1150016 57.185,23.805 C56.4549964,23.4949985 55.8200027,23.0700027 55.28,22.53 C54.7399973,21.9899973 54.3150016,21.3650035 54.005,20.655 C53.6949985,19.9449965 53.54,19.1800041 53.54,18.36 C53.54,17.559996 53.6949985,16.8000036 54.005,16.08 C54.3150016,15.3599964 54.7399973,14.7350026 55.28,14.205 C55.8200027,13.6749973 56.4549964,13.2550016 57.185,12.945 C57.9150037,12.6349984 58.6999958,12.48 59.54,12.48 C60.1600031,12.48 60.7549972,12.6049988 61.325,12.855 C61.8950029,13.1050013 62.4049978,13.4499978 62.855,13.89 C63.3050023,14.3300022 63.6999983,14.854997 64.04,15.465 C64.3800017,16.0750031 64.6399991,16.7399964 64.82,17.46 L64.82,17.46 Z M68.45,12.75 L70.64,12.75 L70.64,13.02 C70.6800002,13.5000024 70.7149998,13.9349981 70.745,14.325 C70.7750001,14.715002 70.8099998,15.1499976 70.85,15.63 C71.250002,14.6699952 71.8949955,13.9050028 72.785,13.335 C73.6750044,12.7649971 74.6599946,12.48 75.74,12.48 C76.9200059,12.48 77.8499966,12.7899969 78.53,13.41 C79.2100034,14.0300031 79.5699998,14.839995 79.61,15.84 L79.61,24 L77.12,24 L77.12,16.98 C77.0799998,16.4399973 76.8850018,15.975002 76.535,15.585 C76.1849982,15.194998 75.6300038,14.9800002 74.87,14.94 C74.3499974,14.94 73.8550023,15.0299991 73.385,15.21 C72.9149977,15.3900009 72.5000018,15.6399984 72.14,15.96 C71.7799982,16.2800016 71.4900011,16.6599978 71.27,17.1 C71.0499989,17.5400022 70.94,18.0199974 70.94,18.54 L70.94,24 L68.45,24 L68.45,12.75 Z M1.97,39.9000015 L4.46,39.9000015 L4.46,60.9000015 L1.97,60.9000015 L1.97,39.9000015 Z M16.22,50.6400015 C15.9999989,50.9600031 15.7700012,51.27 15.53,51.5700015 C15.2899988,51.870003 15.0600011,52.1799999 14.84,52.5000015 C14.7399995,52.400001 14.5450015,52.2600024 14.255,52.0800015 C13.9649986,51.9000006 13.5800024,51.8100015 13.1,51.8100015 C12.6599978,51.8100015 12.340001,51.9050006 12.14,52.0950015 C11.939999,52.2850025 11.8599998,52.5399999 11.9,52.8600015 C11.9400002,53.1000027 12.0899987,53.2950008 12.35,53.4450015 C12.6100013,53.5950023 12.9149983,53.7400008 13.265,53.8800015 C13.6150018,54.0200022 13.989998,54.1800006 14.39,54.3600015 C14.790002,54.5400024 15.1599983,54.7650002 15.5,55.0350015 C15.8400017,55.3050029 16.1199989,55.6449995 16.34,56.0550015 C16.5600011,56.4650036 16.67,56.9799984 16.67,57.6000015 C16.67,57.8800029 16.6150006,58.2199995 16.505,58.6200015 C16.3949995,59.0200035 16.2000014,59.4099996 15.92,59.7900015 C15.6399986,60.1700034 15.2500025,60.4900002 14.75,60.7500015 C14.2499975,61.0100028 13.600004,61.1400015 12.8,61.1400015 C12.0599963,61.1400015 11.3500034,61.0150028 10.67,60.7650015 C9.9899966,60.5150003 9.450002,60.1700037 9.05,59.7300015 C9.3100013,59.43 9.5599988,59.1250031 9.8,58.8150015 C10.0400012,58.505 10.2899987,58.200003 10.55,57.9000015 C10.9900022,58.1800029 11.3599985,58.3850009 11.66,58.5150015 C11.9600015,58.6450022 12.3499976,58.7100015 12.83,58.7100015 C12.8500001,58.7100015 12.9249994,58.7050016 13.055,58.6950015 C13.1850007,58.6850015 13.3299992,58.6450019 13.49,58.5750015 C13.6500008,58.5050012 13.7949994,58.4000022 13.925,58.2600015 C14.0550007,58.1200008 14.1299999,57.9100029 14.15,57.6300015 C14.1700001,57.2699997 14.0700011,56.9950025 13.85,56.8050015 C13.6299989,56.6150006 13.3450018,56.4550022 12.995,56.3250015 C12.6449983,56.1950009 12.2600021,56.0650022 11.84,55.9350015 C11.4199979,55.8050009 11.0250019,55.6250027 10.655,55.3950015 C10.2849982,55.1650004 9.9800012,54.8400036 9.74,54.4200015 C9.4999988,53.9999994 9.38,53.440005 9.38,52.7400015 C9.38,52.1199984 9.4999988,51.6000036 9.74,51.1800015 C9.9800012,50.7599994 10.2799982,50.4150029 10.64,50.1450015 C11.0000018,49.8750002 11.3899979,49.6800021 11.81,49.5600015 C12.2300021,49.4400009 12.6099983,49.3800015 12.95,49.3800015 C13.150001,49.3800015 13.3949986,49.4000013 13.685,49.4400015 C13.9750015,49.4800017 14.2699985,49.550001 14.57,49.6500015 C14.8700015,49.750002 15.1649986,49.8800007 15.455,50.0400015 C15.7450015,50.2000023 15.9999989,50.4000003 16.22,50.6400015 L16.22,50.6400015 Z M22.19,60.9000015 L19.7,60.9000015 L19.7,38.4000015 L22.19,38.4000015 L22.19,60.9000015 Z M27.77,55.2600015 C27.77,56.2400064 28.0949968,57.0649982 28.745,57.7350015 C29.3950033,58.4050049 30.2399948,58.7400015 31.28,58.7400015 C32.3200052,58.7400015 33.1649968,58.4050049 33.815,57.7350015 C34.4650033,57.0649982 34.79,56.2400064 34.79,55.2600015 C34.79,54.2599965 34.4650033,53.4350048 33.815,52.7850015 C33.1649968,52.1349983 32.3200052,51.8100015 31.28,51.8100015 C30.2399948,51.8100015 29.3950033,52.1349983 28.745,52.7850015 C28.0949968,53.4350048 27.77,54.2599965 27.77,55.2600015 L27.77,55.2600015 Z M25.25,55.2900015 C25.25,54.5099976 25.4049985,53.7600051 25.715,53.0400015 C26.0250016,52.3199979 26.4499973,51.6900042 26.99,51.1500015 C27.5300027,50.6099988 28.1699963,50.1800031 28.91,49.8600015 C29.6500037,49.5399999 30.4399958,49.3800015 31.28,49.3800015 C31.8200027,49.3800015 32.3199977,49.4600007 32.78,49.6200015 C33.2400023,49.7800023 33.6399983,49.9550006 33.98,50.1450015 C34.3200017,50.3350025 34.589999,50.5200006 34.79,50.7000015 C34.990001,50.8800024 35.09,51.0000012 35.09,51.0600015 C35.09,50.8400004 35.1099998,50.6100027 35.15,50.3700015 C35.1900002,50.1300003 35.21,49.8900027 35.21,49.6500015 L37.28,49.6500015 L37.28,60.9000015 L35.09,60.9000015 L35.09,59.9400015 L35.09,59.6700015 C35.09,59.7300018 35.0000009,59.8400007 34.82,60.0000015 C34.6399991,60.1600023 34.3900016,60.3250007 34.07,60.4950015 C33.7499984,60.6650024 33.3550024,60.8200008 32.885,60.9600015 C32.4149977,61.1000022 31.880003,61.1700015 31.28,61.1700015 C30.4399958,61.1700015 29.6500037,61.0150031 28.91,60.7050015 C28.1699963,60.395 27.5300027,59.9700042 26.99,59.4300015 C26.4499973,58.8899988 26.0250016,58.2650051 25.715,57.5550015 C25.4049985,56.844998 25.25,56.0900055 25.25,55.2900015 L25.25,55.2900015 Z M41.54,49.6500015 L43.73,49.6500015 L43.73,49.9200015 C43.7700002,50.4000039 43.8049999,50.8349996 43.835,51.2250015 C43.8650002,51.6150035 43.8999998,52.0499991 43.94,52.5300015 C44.340002,51.5699967 44.9849956,50.8050044 45.875,50.2350015 C46.7650044,49.6649987 47.7499946,49.3800015 48.83,49.3800015 C50.0100059,49.3800015 50.9399966,49.6899984 51.62,50.3100015 C52.3000034,50.9300046 52.6599998,51.7399965 52.7,52.7400015 L52.7,60.9000015 L50.21,60.9000015 L50.21,53.8800015 C50.1699998,53.3399988 49.9750018,52.8750035 49.625,52.4850015 C49.2749983,52.0949996 48.7200038,51.8800017 47.96,51.8400015 C47.4399974,51.8400015 46.9450024,51.9300006 46.475,52.1100015 C46.0049976,52.2900024 45.5900018,52.5399999 45.23,52.8600015 C44.8699982,53.1800031 44.5800011,53.5599993 44.36,54.0000015 C44.1399989,54.4400037 44.03,54.9199989 44.03,55.4400015 L44.03,60.9000015 L41.54,60.9000015 L41.54,49.6500015 Z M57.92,55.2600015 C57.92,56.2400064 58.2449967,57.0649982 58.895,57.7350015 C59.5450032,58.4050049 60.3899948,58.7400015 61.43,58.7400015 C62.4700052,58.7400015 63.3149968,58.4050049 63.965,57.7350015 C64.6150033,57.0649982 64.94,56.2400064 64.94,55.2600015 C64.94,54.2599965 64.6150033,53.4350048 63.965,52.7850015 C63.3149968,52.1349983 62.4700052,51.8100015 61.43,51.8100015 C60.3899948,51.8100015 59.5450032,52.1349983 58.895,52.7850015 C58.2449967,53.4350048 57.92,54.2599965 57.92,55.2600015 L57.92,55.2600015 Z M55.4,55.2600015 C55.4,54.4599975 55.5549985,53.7050051 55.865,52.9950015 C56.1750016,52.284998 56.5999973,51.6600042 57.14,51.1200015 C57.6800027,50.5799988 58.3199963,50.1550031 59.06,49.8450015 C59.8000037,49.535 60.5899958,49.3800015 61.43,49.3800015 C61.9700027,49.3800015 62.4699977,49.4550008 62.93,49.6050015 C63.3900023,49.7550023 63.7899983,49.9250006 64.13,50.1150015 C64.4700017,50.3050025 64.739999,50.4850007 64.94,50.6550015 C65.140001,50.8250024 65.24,50.9400012 65.24,51.0000015 C65.1999998,50.8400007 65.1500003,50.6800023 65.09,50.5200015 C65.0299997,50.3600007 64.9800002,50.2000023 64.94,50.0400015 L64.94,38.4000015 L67.43,38.4000015 L67.43,60.9000015 L65.24,60.9000015 L65.24,59.9400015 L65.24,59.6700015 C65.24,59.7300018 65.1500009,59.8400007 64.97,60.0000015 C64.7899991,60.1600023 64.5400016,60.3250007 64.22,60.4950015 C63.8999984,60.6650024 63.5050024,60.8200008 63.035,60.9600015 C62.5649977,61.1000022 62.030003,61.1700015 61.43,61.1700015 C60.5899958,61.1700015 59.8000037,61.0150031 59.06,60.7050015 C58.3199963,60.395 57.6800027,59.9700042 57.14,59.4300015 C56.5999973,58.8899988 56.1750016,58.2600051 55.865,57.5400015 C55.5549985,56.8199979 55.4,56.0600055 55.4,55.2600015 L55.4,55.2600015 Z"></path>
            <path d="M124.2,42.32 L124.2,36 L135.24,36 C136.786674,36 137.813331,36.3866628 138.32,37.16 C138.826669,37.9333372 139.08,39.1466584 139.08,40.8 L139.08,56.64 C136.946656,57.8666728 134.666679,58.8399964 132.24,59.56 C129.813321,60.2800036 127.240014,60.64 124.52,60.64 C120.573314,60.64 116.866684,59.8933408 113.4,58.4 C109.933316,56.9066592 106.90668,54.8666796 104.32,52.28 C101.73332,49.6933204 99.6933408,46.666684 98.2,43.2 C96.7066592,39.733316 95.96,36.0266864 95.96,32.08 C95.96,28.1333136 96.7066592,24.4133508 98.2,20.92 C99.6933408,17.4266492 101.73332,14.3866796 104.32,11.8 C106.90668,9.2133204 109.933316,7.1600076 113.4,5.64 C116.866684,4.1199924 120.573314,3.36 124.52,3.36 C127.240014,3.36 129.813321,3.7066632 132.24,4.4 C134.666679,5.0933368 136.973322,6.0799936 139.16,7.36 C138.57333,8.2666712 137.960003,9.1599956 137.32,10.04 C136.679997,10.9200044 136.06667,11.8133288 135.48,12.72 C133.826658,11.7599952 132.093342,11.013336 130.28,10.48 C128.466658,9.946664 126.546677,9.68 124.52,9.68 C121.479985,9.68 118.640013,10.2666608 116,11.44 C113.359987,12.6133392 111.04001,14.2266564 109.04,16.28 C107.03999,18.3333436 105.466672,20.7199864 104.32,23.44 C103.173328,26.1600136 102.6,29.0399848 102.6,32.08 C102.6,35.1200152 103.173328,37.9999864 104.32,40.72 C105.466672,43.4400136 107.03999,45.79999 109.04,47.8 C111.04001,49.80001 113.359987,51.3866608 116,52.56 C118.640013,53.7333392 121.479985,54.32 124.52,54.32 C127.293347,54.32 129.933321,53.8400048 132.44,52.88 L132.44,44.72 C132.44,43.8133288 132.346668,43.1866684 132.16,42.84 C131.973332,42.4933316 131.453338,42.32 130.6,42.32 L124.2,42.32 Z M155.4,44.96 C155.4,47.5733464 156.266658,49.7733244 158,51.56 C159.733342,53.3466756 161.986653,54.24 164.76,54.24 C167.533347,54.24 169.786658,53.3466756 171.52,51.56 C173.253342,49.7733244 174.12,47.5733464 174.12,44.96 C174.12,42.29332 173.253342,40.093342 171.52,38.36 C169.786658,36.626658 167.533347,35.76 164.76,35.76 C161.986653,35.76 159.733342,36.626658 158,38.36 C156.266658,40.093342 155.4,42.29332 155.4,44.96 L155.4,44.96 Z M148.68,45.04 C148.68,42.9599896 149.093329,40.9600096 149.92,39.04 C150.746671,37.1199904 151.879993,35.4400072 153.32,34 C154.760007,32.5599928 156.466657,31.4133376 158.44,30.56 C160.413343,29.7066624 162.519989,29.28 164.76,29.28 C166.200007,29.28 167.533327,29.4933312 168.76,29.92 C169.986673,30.3466688 171.053329,30.8133308 171.96,31.32 C172.866671,31.8266692 173.586664,32.3199976 174.12,32.8 C174.653336,33.2800024 174.92,33.5999992 174.92,33.76 C174.92,33.1733304 174.973333,32.5600032 175.08,31.92 C175.186667,31.2799968 175.24,30.6400032 175.24,30 L180.76,30 L180.76,60 L174.92,60 L174.92,57.44 L174.92,56.72 C174.92,56.8800008 174.680002,57.1733312 174.2,57.6 C173.719998,58.0266688 173.053338,58.4666644 172.2,58.92 C171.346662,59.3733356 170.29334,59.7866648 169.04,60.16 C167.78666,60.5333352 166.360008,60.72 164.76,60.72 C162.519989,60.72 160.413343,60.3066708 158.44,59.48 C156.466657,58.6533292 154.760007,57.5200072 153.32,56.08 C151.879993,54.6399928 150.746671,52.9733428 149.92,51.08 C149.093329,49.1866572 148.68,47.173344 148.68,45.04 L148.68,45.04 Z M209.56,35.84 C206.30665,35.84 203.693343,36.7466576 201.72,38.56 C199.746657,40.3733424 198.76,42.6666528 198.76,45.44 L198.76,60 L192.12,60 L192.12,30 L197.96,30 L197.96,30.72 C198.066667,32.0000064 198.16,33.1599948 198.24,34.2 C198.32,35.2400052 198.413333,36.3999936 198.52,37.68 C199.160003,36.34666 199.973328,35.1600052 200.96,34.12 C201.946672,33.0799948 202.986661,32.2000036 204.08,31.48 C205.173339,30.7599964 206.239995,30.2133352 207.28,29.84 C208.320005,29.4666648 209.239996,29.28 210.04,29.28 L209.56,35.84 Z M222.68,44.96 C222.68,47.5733464 223.546658,49.7733244 225.28,51.56 C227.013342,53.3466756 229.266653,54.24 232.04,54.24 C234.813347,54.24 237.066658,53.3466756 238.8,51.56 C240.533342,49.7733244 241.4,47.5733464 241.4,44.96 C241.4,42.29332 240.533342,40.093342 238.8,38.36 C237.066658,36.626658 234.813347,35.76 232.04,35.76 C229.266653,35.76 227.013342,36.626658 225.28,38.36 C223.546658,40.093342 222.68,42.29332 222.68,44.96 L222.68,44.96 Z M215.96,44.96 C215.96,42.826656 216.373329,40.8133428 217.2,38.92 C218.026671,37.0266572 219.159993,35.3600072 220.6,33.92 C222.040007,32.4799928 223.746657,31.3466708 225.72,30.52 C227.693343,29.6933292 229.799989,29.28 232.04,29.28 C233.480007,29.28 234.813327,29.479998 236.04,29.88 C237.266673,30.280002 238.333329,30.7333308 239.24,31.24 C240.146671,31.7466692 240.866664,32.2266644 241.4,32.68 C241.933336,33.1333356 242.2,33.4399992 242.2,33.6 C242.093333,33.1733312 241.960001,32.7466688 241.8,32.32 C241.639999,31.8933312 241.506667,31.4666688 241.4,31.04 L241.4,0 L248.04,0 L248.04,60 L242.2,60 L242.2,57.44 L242.2,56.72 C242.2,56.8800008 241.960002,57.1733312 241.48,57.6 C240.999998,58.0266688 240.333338,58.4666644 239.48,58.92 C238.626662,59.3733356 237.57334,59.7866648 236.32,60.16 C235.06666,60.5333352 233.640008,60.72 232.04,60.72 C229.799989,60.72 227.693343,60.3066708 225.72,59.48 C223.746657,58.6533292 222.040007,57.5200072 220.6,56.08 C219.159993,54.6399928 218.026671,52.9600096 217.2,51.04 C216.373329,49.1199904 215.96,47.093344 215.96,44.96 L215.96,44.96 Z M273.16,35.76 C271.026656,35.76 269.186674,36.293328 267.64,37.36 C266.093326,38.426672 265.000003,39.8133248 264.36,41.52 C264.093332,42.320004 263.906667,43.253328 263.8,44.32 C266.306679,43.4133288 268.799988,42.493338 271.28,41.56 C273.760012,40.626662 276.253321,39.7066712 278.76,38.8 C278.01333,37.8933288 277.173338,37.1600028 276.24,36.6 C275.306662,36.0399972 274.280006,35.76 273.16,35.76 L273.16,35.76 Z M287.24,42.56 C283.613315,43.89334 280.000018,45.22666 276.4,46.56 C272.799982,47.89334 269.186685,49.22666 265.56,50.56 C266.360004,51.6800056 267.413327,52.57333 268.72,53.24 C270.026673,53.90667 271.506658,54.24 273.16,54.24 C275.613346,54.24 277.639992,53.3866752 279.24,51.68 L283.32,56.48 C281.98666,57.81334 280.466675,58.8533296 278.76,59.6 C277.053325,60.3466704 275.186677,60.72 273.16,60.72 C270.919989,60.72 268.826676,60.3066708 266.88,59.48 C264.933324,58.6533292 263.240007,57.5200072 261.8,56.08 C260.359993,54.6399928 259.226671,52.9733428 258.4,51.08 C257.573329,49.1866572 257.16,47.1466776 257.16,44.96 C257.16,42.826656 257.573329,40.8000096 258.4,38.88 C259.226671,36.9599904 260.359993,35.2933404 261.8,33.88 C263.240007,32.4666596 264.933324,31.3466708 266.88,30.52 C268.826676,29.6933292 270.919989,29.28 273.16,29.28 C274.813342,29.28 276.399992,29.61333 277.92,30.28 C279.440008,30.94667 280.799994,31.8666608 282,33.04 C283.200006,34.2133392 284.253329,35.6133252 285.16,37.24 C286.066671,38.8666748 286.759998,40.6399904 287.24,42.56 L287.24,42.56 Z M296.92,30 L302.76,30 L302.76,30.72 C302.866667,32.0000064 302.96,33.1599948 303.04,34.2 C303.12,35.2400052 303.213333,36.3999936 303.32,37.68 C304.386672,35.1199872 306.106655,33.0800076 308.48,31.56 C310.853345,30.0399924 313.479986,29.28 316.36,29.28 C319.506682,29.28 321.986658,30.1066584 323.8,31.76 C325.613342,33.4133416 326.573333,35.57332 326.68,38.24 L326.68,60 L320.04,60 L320.04,41.28 C319.933333,39.8399928 319.413338,38.6000052 318.48,37.56 C317.546662,36.5199948 316.066677,35.9466672 314.04,35.84 C312.653326,35.84 311.33334,36.0799976 310.08,36.56 C308.82666,37.0400024 307.720005,37.7066624 306.76,38.56 C305.799995,39.4133376 305.02667,40.4266608 304.44,41.6 C303.85333,42.7733392 303.56,44.0533264 303.56,45.44 L303.56,60 L296.92,60 L296.92,30 Z M398.44,51.36 L402.04,56.64 C399.906656,57.8666728 397.626679,58.8399964 395.2,59.56 C392.773321,60.2800036 390.200014,60.64 387.48,60.64 C383.533314,60.64 379.826684,59.8933408 376.36,58.4 C372.893316,56.9066592 369.86668,54.8666796 367.28,52.28 C364.69332,49.6933204 362.653341,46.666684 361.16,43.2 C359.666659,39.733316 358.92,36.0266864 358.92,32.08 C358.92,28.1333136 359.666659,24.4133508 361.16,20.92 C362.653341,17.4266492 364.69332,14.3866796 367.28,11.8 C369.86668,9.2133204 372.893316,7.1600076 376.36,5.64 C379.826684,4.1199924 383.533314,3.36 387.48,3.36 C390.200014,3.36 392.773321,3.7066632 395.2,4.4 C397.626679,5.0933368 399.933322,6.0799936 402.12,7.36 C401.53333,8.2666712 400.920003,9.1599956 400.28,10.04 C399.639997,10.9200044 399.02667,11.8133288 398.44,12.72 C396.786658,11.7599952 395.053342,11.013336 393.24,10.48 C391.426658,9.946664 389.506677,9.68 387.48,9.68 C384.439985,9.68 381.600013,10.2666608 378.96,11.44 C376.319987,12.6133392 374.00001,14.2266564 372,16.28 C369.99999,18.3333436 368.426672,20.7199864 367.28,23.44 C366.133328,26.1600136 365.56,29.0399848 365.56,32.08 C365.56,35.1200152 366.133328,37.9999864 367.28,40.72 C368.426672,43.4400136 369.99999,45.79999 372,47.8 C374.00001,49.80001 376.319987,51.3866608 378.96,52.56 C381.600013,53.7333392 384.439985,54.32 387.48,54.32 C391.426686,54.32 395.079983,53.3333432 398.44,51.36 L398.44,51.36 Z M418.84,60 L412.2,60 L412.2,0 L418.84,0 L418.84,60 Z M459.4,60.72 L452.76,60.72 L452.76,55.92 L453,52.32 C451.933328,54.8800128 450.213345,56.9199924 447.84,58.44 C445.466655,59.9600076 442.840014,60.72 439.96,60.72 C436.813318,60.72 434.333342,59.8933416 432.52,58.24 C430.706658,56.5866584 429.746667,54.42668 429.64,51.76 L429.64,30 L436.28,30 L436.28,48.72 C436.386667,50.1600072 436.906662,51.3999948 437.84,52.44 C438.773338,53.4800052 440.253323,54.0533328 442.28,54.16 C443.666674,54.16 444.98666,53.9200024 446.24,53.44 C447.49334,52.9599976 448.599995,52.2933376 449.56,51.44 C450.520005,50.5866624 451.29333,49.5733392 451.88,48.4 C452.46667,47.2266608 452.76,45.9466736 452.76,44.56 L452.76,30 L459.4,30 L459.4,60.72 Z M497.32,44.96 C497.32,42.29332 496.453342,40.093342 494.72,38.36 C492.986658,36.626658 490.733347,35.76 487.96,35.76 C485.186653,35.76 482.933342,36.626658 481.2,38.36 C479.466658,40.093342 478.6,42.29332 478.6,44.96 C478.6,47.5733464 479.466658,49.7733244 481.2,51.56 C482.933342,53.3466756 485.186653,54.24 487.96,54.24 C490.733347,54.24 492.986658,53.3466756 494.72,51.56 C496.453342,49.7733244 497.32,47.5733464 497.32,44.96 L497.32,44.96 Z M504.04,44.96 C504.04,47.093344 503.626671,49.1199904 502.8,51.04 C501.973329,52.9600096 500.840007,54.6399928 499.4,56.08 C497.959993,57.5200072 496.253343,58.6533292 494.28,59.48 C492.306657,60.3066708 490.200011,60.72 487.96,60.72 C486.359992,60.72 484.93334,60.5333352 483.68,60.16 C482.42666,59.7866648 481.373338,59.3733356 480.52,58.92 C479.666662,58.4666644 479.000002,58.0266688 478.52,57.6 C478.039998,57.1733312 477.8,56.8800008 477.8,56.72 L477.8,57.44 L477.8,60 L471.96,60 L471.96,0 L478.6,0 L478.6,31.04 C478.493333,31.4666688 478.360001,31.8933312 478.2,32.32 C478.039999,32.7466688 477.906667,33.1733312 477.8,33.6 C477.8,33.4399992 478.066664,33.1333356 478.6,32.68 C479.133336,32.2266644 479.853329,31.7466692 480.76,31.24 C481.666671,30.7333308 482.733327,30.280002 483.96,29.88 C485.186673,29.479998 486.519993,29.28 487.96,29.28 C490.200011,29.28 492.306657,29.6933292 494.28,30.52 C496.253343,31.3466708 497.959993,32.4799928 499.4,33.92 C500.840007,35.3600072 501.973329,37.0266572 502.8,38.92 C503.626671,40.8133428 504.04,42.826656 504.04,44.96 L504.04,44.96 Z" ></path>
    </symbol>
</svg>